<svg width="168" height="168" viewBox="0 0 168 168" fill="none" xmlns="http://www.w3.org/2000/svg">
<rect width="168" height="168" fill="white"/>
<path fill-rule="evenodd" clip-rule="evenodd" d="M72.6126 82.8472H80.2793L77.6558 77.0947L72.6126 82.8472ZM81.6796 85.978H69.8621L66.1763 90.1776H61L76.1019 73.5572C76.815 72.8185 77.6558 72.4369 78.6233 72.4369C79.5403 72.4369 80.2535 72.8185 80.6099 73.5572L88.6608 90.1776H83.5984L81.6796 85.978Z" fill="#E41F2E"/>
<path fill-rule="evenodd" clip-rule="evenodd" d="M110.008 77.222C110.28 76.4054 109.358 75.9237 107.665 75.9237H97.6551C97.4772 75.9237 97.3748 76.0003 97.3498 76.1534L96.5858 79.742H106.901C109.859 79.742 109.707 78.7569 110.008 77.222ZM108.811 84.0687C108.811 83.9928 108.836 83.942 108.836 83.8655C108.836 83.178 108.072 82.822 106.442 82.822H95.9485L95.1083 86.6648C95.1083 86.7672 95.2104 86.8177 95.3376 86.8177H105.576C107.359 86.8177 108.301 86.4103 108.48 85.5962L108.811 84.0687ZM90.0602 90.1776L93.8148 72.564H108.276C112.915 72.564 114.96 73.9455 114.312 77.0186C113.933 78.8212 113.867 80.0041 111.689 81.2178C113.723 82.5561 113.111 84.2071 112.708 86.1051C112.096 88.8287 109.55 90.1776 105.016 90.1776H90.0602Z" fill="#E41F2E"/>
<path fill-rule="evenodd" clip-rule="evenodd" d="M123.749 75.9241H115.929L116.645 72.564H136.618L135.901 75.9241H128.054L125.027 90.1776H120.704L123.749 75.9241Z" fill="#E41F2E"/>
<path fill-rule="evenodd" clip-rule="evenodd" d="M153.994 77.5531C154.019 77.4511 154.019 77.3748 154.019 77.273C154.019 76.3823 153.001 75.9241 150.938 75.9241H145.131C142.864 75.9241 141.591 76.4841 141.361 77.5531L139.757 85.0618C139.731 85.1634 139.731 85.2649 139.731 85.3673C139.731 86.3344 140.75 86.8179 142.838 86.8179H148.62C150.912 86.8179 152.16 86.2324 152.415 85.0618L153.994 77.5531ZM142.176 90.1776C137.592 90.1776 135.3 88.9049 135.3 86.3344C135.3 85.978 135.325 85.6216 135.427 85.2141L137.082 77.4511C137.77 74.1934 140.674 72.5643 145.793 72.5643H151.728C156.21 72.5643 158.451 73.8368 158.451 76.3569C158.451 76.6875 158.4 77.0696 158.324 77.4511L156.669 85.2141C155.955 88.5231 153.026 90.1776 147.856 90.1776H142.176Z" fill="#E41F2E"/>
<path fill-rule="evenodd" clip-rule="evenodd" d="M82.8761 59.8922C85.9149 55.6028 89.7699 51.4115 95.5067 52.0162C99.4851 52.4333 103.928 53.8965 107.714 55.4734C108.085 55.6285 107.946 55.6957 107.812 56.1247C107.372 57.5561 106.84 59.6235 105.207 59.8818C97.4439 61.1279 89.5197 61.6776 82.0622 61.5311C81.6122 61.5222 82.4979 60.4639 82.8761 59.8922ZM110.045 57.3456C109.844 56.8363 109.538 56.5623 109.478 56.872C109.216 58.2266 108.279 59.2881 108.825 59.1588C109.85 58.916 110.087 59.0376 110.151 58.3262C110.186 57.9315 110.192 57.719 110.045 57.3456ZM73.6235 61.7701L73.6248 61.7908C73.6305 61.8674 73.5762 61.9351 73.5004 61.9467C60.4819 63.9046 45.3977 67.029 32.8864 71.3937C32.8117 71.4195 32.7711 71.5011 32.7948 71.5766L32.7973 71.5845C32.8214 71.66 32.901 71.7031 32.9773 71.6818C38.0992 70.2332 45.1373 68.3798 48.7878 67.8508C51.2743 67.4897 51.1113 71.4413 48.5243 72.3316C46.3003 73.0962 43.5462 73.6274 41.3959 73.9633C41.318 73.9752 41.2637 74.047 41.2725 74.1249L41.274 74.1361C41.2831 74.2146 41.3521 74.2717 41.4312 74.2658C44.1851 74.0519 47.9923 73.1961 49.682 72.6535C50.1082 72.5169 50.291 72.3777 50.6008 72.034C51.7217 70.7904 52.7834 68.0141 51.8888 66.6623C64.3432 64.5104 74.2691 63.0412 86.6385 62.7759C95.853 62.5781 103.422 62.4157 112.414 59.7545C112.866 59.621 112.751 59.6413 113.225 59.7623C115.137 60.2488 117.372 60.498 119.326 60.6113C119.903 60.6439 118.685 61.4335 118.623 61.4733C117.57 62.1627 113.462 63.667 110.796 64.3042C110.721 64.3221 110.673 64.3936 110.685 64.4692L110.688 64.4901C110.699 64.5663 110.768 64.6202 110.844 64.6145C114.548 64.3275 118.198 63.2355 121.776 62.2329C122.685 61.9799 122.623 61.9177 123.321 62.7964C124.776 64.6261 125.189 67.2114 125.545 67.1243C125.619 67.1063 125.667 67.035 125.655 66.9595C125.255 64.3831 124.52 61.5996 122.127 60.3366C119.967 59.4784 118.045 58.9875 115.58 58.5016C114.882 58.3622 114.882 58.3364 114.313 57.9952C110.556 55.737 107.031 53.8091 103.564 52.2895C98.4829 50.059 95.5594 49.9754 90.4009 49.8455C83.3831 49.6643 74.8451 49.5196 67.7808 49.8555C64.4422 50.0156 62.2098 50.4911 59.0416 51.6281C52.6746 54.1293 48.1839 56.605 42.7623 59.9744C41.9458 60.481 41.8011 60.5327 40.8503 60.6515C36.3283 61.2148 32.1835 62.1088 27.9456 63.2715C27.315 63.4422 27.2943 63.468 26.6432 63.4215C24.8086 63.2922 22.3124 63.7781 20.731 64.3723C18.336 65.3284 13.3803 67.3933 9.05933 70.5869C8.99675 70.633 8.98138 70.7204 9.02424 70.7858L9.03278 70.7987C9.07565 70.8638 9.16137 70.8837 9.22889 70.8448C15.6735 67.1181 22.8368 65.2235 29.5324 63.9228C31.895 63.4634 43.399 61.4716 45.3666 61.4632C49.0504 61.4467 70.5105 61.622 73.478 61.6341C73.5546 61.6345 73.6178 61.6937 73.6235 61.7701ZM79.6254 59.4941C82.1322 56.9175 84.6394 54.4033 87.1506 51.8309C87.19 51.7903 87.2027 51.7347 87.1849 51.6812L87.1587 51.604C87.1405 51.5506 87.0967 51.514 87.0406 51.5058C82.4287 50.8452 75.1186 50.7138 68.1475 50.819C64.4435 50.8748 61.2905 51.5803 57.8881 52.9873C52.8236 55.3315 48.7853 57.5523 44.691 60.0269C44.6339 60.0614 44.6077 60.1265 44.6248 60.1908L44.6409 60.2499C44.658 60.3139 44.7143 60.3575 44.7801 60.3586C51.9775 60.4918 69.1878 60.3366 76.0379 60.3326C77.2554 60.3321 78.6589 60.3156 79.6254 59.4941Z" fill="#E41F2E"/>
<path fill-rule="evenodd" clip-rule="evenodd" d="M56.0232 90.1776C56.5704 83.365 57.6319 78.4756 59.7357 75.2854C63.4493 69.6539 69.0448 68.694 77.4062 68.9421C77.4428 68.9432 77.5443 68.9464 77.6418 68.9421C77.883 68.9316 77.961 68.7181 77.7057 68.6318C74.1167 67.4149 70.11 67.3316 66.4354 68.3105C62.328 69.4043 58.6349 71.8775 56.4021 76.6431C56.3788 76.6935 56.3357 76.7322 56.2785 76.7371C48.5551 77.418 41.7004 77.9011 34.6143 77.7543C34.5354 77.753 34.469 77.8141 34.4649 77.8932L34.4641 77.9026C34.4596 77.9815 34.5189 78.0498 34.5976 78.057C41.0233 78.6254 48.1122 78.6619 55.4314 78.1299C55.8204 78.1014 55.9803 78.1054 55.8669 78.5039C54.8871 81.9632 54.3746 85.0684 53.9888 88.5738C53.9814 88.6392 53.9338 88.6906 53.8688 88.7022C44.0033 90.4877 31.2085 90.7991 20.1704 89.835C20.0909 89.8284 20.0207 89.8853 20.012 89.9644L20.0109 89.9718C20.0018 90.0507 20.0573 90.1228 20.1364 90.1339C31.2404 91.6843 43.9936 91.9659 55.733 90.415C55.9642 90.3845 56.0057 90.3953 56.0232 90.1776Z" fill="#E41F2E"/>
<path fill-rule="evenodd" clip-rule="evenodd" d="M34.4934 81.2413C25.8521 81.0298 18.4056 80.7522 9.80242 79.8892C9.72447 79.8814 9.65392 79.9364 9.64273 80.014L9.64101 80.0261C9.62944 80.1041 9.68141 80.1769 9.7588 80.1915C17.6398 81.6838 25.483 82.3899 34.0435 82.6312C35.1442 82.6416 35.8784 83.1017 36.638 83.6906C38.2981 84.7279 39.7669 86.3634 41.1746 88.1229C41.2226 88.1823 41.3077 88.1956 41.3714 88.1529L41.3893 88.1408C41.4532 88.0973 41.4723 88.0131 41.4344 87.946C39.87 85.204 36.9511 81.0169 34.4934 81.236V81.2413Z" fill="#E41F2E"/>
<path d="M84.4244 116.926L99.7245 105.879L97.1972 117.741H101.492L104.918 101.756C105.163 100.586 104.546 100 103.043 100C101.999 100 101.45 100.331 100.532 100.993L85.2214 112.064L87.7676 100.127H83.4634L80.104 115.959C79.8495 117.155 80.4663 117.741 81.9432 117.741C82.9621 117.741 83.5417 117.563 84.4244 116.926Z" fill="#50565B"/>
<path d="M130.165 107.05L120.309 116.621C119.773 117.155 118.933 117.741 117.685 117.741C116.463 117.741 115.902 117.129 115.596 116.621L109.866 107.025L107.583 117.741H103.282L106.656 101.935C106.937 100.661 107.803 100 109.229 100C110.554 100 111.089 100.534 111.572 101.349L118.653 113.132L130.852 101.349C131.693 100.509 132.483 100.025 133.807 100C135.005 100 135.615 100.509 135.615 101.4C135.615 101.578 135.59 101.756 135.564 101.935L132.189 117.741H127.882L130.165 107.05Z" fill="#50565B"/>
<path d="M68.8193 103.487H61L61.7162 100.127H81.6883L80.9721 103.487H73.124L70.0975 117.741H65.7742L68.8193 103.487Z" fill="#50565B"/>
</svg>
